<svg width="128" height="128" viewBox="0 0 128 128" fill="none" xmlns="http://www.w3.org/2000/svg">
  <rect x="4" y="4" width="120" height="120" rx="30" fill="#111a2f"/>
  <rect x="4" y="4" width="120" height="120" rx="30" stroke="rgba(255,255,255,0.12)"/>
  <path d="M40 28C40 24.6863 42.6863 22 46 22H48C51.3137 22 54 24.6863 54 28V100C54 103.314 51.3137 106 48 106H46C42.6863 106 40 103.314 40 100V28Z" fill="#ff7a59"/>
  <path d="M46 22H76C79.3137 22 82 24.6863 82 28V30C82 33.3137 79.3137 36 76 36H46V22Z" fill="#ff7a59"/>
  <path d="M46 57H68C71.3137 57 74 59.6863 74 63V65C74 68.3137 71.3137 71 68 71H46V57Z" fill="#ff7a59"/>
  <path d="M75.5 21.5L96.5 12L105.5 25.5L87.5 38L75.5 33V21.5Z" fill="#69c8ff"/>
  <path d="M76 24.5L86 20L91 25L80.5 30.5L76 28.5V24.5Z" fill="#69c8ff"/>
</svg>
